# File created by Blade
# Date/Time:  Mon Sep 22 15:39:46 2014
# Frame Rate: 120.000 fps
#------------------------------------------------------
:FULLY-SPECIFIED
:DEGREES
1254
root 2.406495 37.084791 2.382305 0.927093 10.325266 2.606129
RightUpLeg 9.614554 -13.325849 -4.215260
RightLeg -5.603268 -0.000000 0.000000
RightFoot -14.605274 -19.522145 18.361021
RightToeBase 15.461941 -0.000000 -0.000000
LeftUpLeg 4.179711 -7.024666 1.021592
LeftLeg -3.377605 -0.000000 0.000000
LeftFoot -6.599751 9.711319 -16.755373
LeftToeBase 9.739957 -0.000000 -0.000000
Spine -3.641830 6.788989 -2.839832
RightShoulder -0.348729 6.518320 -27.283289
RightArm 82.180359 43.137718 127.549363
RightForeArm 85.844881 -0.000000 116.442594
RightHand 27.854419 -0.000000 -35.966390
RightHandThumb1 -24.326973 -0.000000 -32.862282
LeftShoulder -5.107171 35.243387 2.889063
LeftArm 44.192900 20.192017 -58.206477
LeftForeArm 20.469896 -0.000000 25.300428
LeftHand -12.661192 -0.000000 -7.652884
LeftHandThumb1 -26.253704 0.000000 33.147579
Head 1.672186 -16.144051 -1.620811
1255
root 2.427334 37.085538 2.391263 0.930221 10.182482 2.650799
RightUpLeg 9.624336 -13.437295 -4.320097
RightLeg -5.617372 -0.000000 0.000000
RightFoot -14.506484 -19.321613 18.267376
RightToeBase 15.431677 -0.000000 -0.000000
LeftUpLeg 4.226954 -6.933778 0.940283
LeftLeg -3.388476 -0.000000 0.000000
LeftFoot -6.606107 9.747321 -16.755228
LeftToeBase 9.689205 -0.000000 -0.000000
Spine -3.751461 6.838572 -2.748572
RightShoulder -0.300237 6.324468 -27.154506
RightArm 82.536193 43.186413 127.942351
RightForeArm 85.933029 0.000000 116.318605
RightHand 27.845095 -0.000000 -35.776476
RightHandThumb1 -24.326973 -0.000000 -32.862282
LeftShoulder -5.005772 35.101436 2.931022
LeftArm 43.998495 20.164671 -58.270751
LeftForeArm 20.875163 -0.000000 24.896838
LeftHand -12.743617 -0.000000 -7.715040
LeftHandThumb1 -26.253704 0.000000 33.147579
Head 2.154654 -16.055935 -1.920278
1256
root 2.444892 37.085031 2.398654 0.917901 9.971705 2.681084
RightUpLeg 9.629604 -13.504745 -4.409369
RightLeg -5.628985 -0.000000 0.000000
RightFoot -14.434442 -19.098791 18.198077
RightToeBase 15.476990 -0.000000 -0.000000
LeftUpLeg 4.279775 -6.851027 0.872230
LeftLeg -3.369088 -0.000000 0.000000
LeftFoot -6.671911 9.826311 -16.793118
LeftToeBase 9.684316 -0.000000 -0.000000
Spine -3.837497 6.962260 -2.645714
RightShoulder -0.238160 6.302598 -27.068837
RightArm 82.679921 43.277089 128.212712
RightForeArm 86.143869 0.000000 116.170106
RightHand 27.852836 0.000000 -35.409952
RightHandThumb1 -24.326973 -0.000000 -32.862282
LeftShoulder -5.026471 35.132475 2.862990
LeftArm 44.129939 20.077919 -58.144202
LeftForeArm 21.182167 -0.000000 24.343283
LeftHand -12.718920 -0.000000 -8.055617
LeftHandThumb1 -26.253704 0.000000 33.147579
Head 2.604415 -16.037149 -2.229190
1257
root 2.461156 37.085332 2.405383 0.914315 9.684767 2.684236
RightUpLeg 9.594284 -13.525473 -4.467596
RightLeg -5.629143 -0.000000 0.000000
RightFoot -14.320886 -18.886126 18.105113
RightToeBase 15.439493 -0.000000 -0.000000
LeftUpLeg 4.326364 -6.732949 0.829769
LeftLeg -3.350394 -0.000000 0.000000
LeftFoot -6.754426 9.945576 -16.802910
LeftToeBase 9.711959 -0.000000 -0.000000
Spine -3.943093 7.181918 -2.513585
RightShoulder -0.181925 6.380192 -26.986796
RightArm 82.676605 43.340878 128.314567
RightForeArm 86.323544 0.000000 115.991592
RightHand 27.883337 0.000000 -35.064385
RightHandThumb1 -24.326973 -0.000000 -32.862282
LeftShoulder -4.998513 35.034404 2.806243
LeftArm 44.097246 19.985766 -58.144063
LeftForeArm 21.706665 -0.000000 23.793716
LeftHand -12.740228 0.000000 -8.396784
LeftHandThumb1 -26.253704 0.000000 33.147579
Head 3.020273 -15.941655 -2.475990
1258
root 2.475796 37.085760 2.411497 0.886761 9.365688 2.677243
RightUpLeg 9.569775 -13.607794 -4.537629
RightLeg -5.585089 -0.000000 0.000000
RightFoot -14.261696 -18.436890 18.126529
RightToeBase 15.535650 -0.000000 -0.000000
LeftUpLeg 4.398629 -6.672238 0.788606
LeftLeg -3.329376 -0.000000 0.000000
LeftFoot -6.863618 10.160758 -16.820846
LeftToeBase 9.700768 -0.000000 -0.000000
Spine -4.005408 7.437102 -2.378878
RightShoulder -0.142027 6.346837 -26.910743
RightArm 82.734803 43.303705 128.405643
RightForeArm 86.444344 0.000000 115.838245
RightHand 27.756172 -0.000000 -35.110922
RightHandThumb1 -24.326973 -0.000000 -32.862282
LeftShoulder -4.967150 34.949406 2.752921
LeftArm 44.100129 19.860312 -58.179644
LeftForeArm 21.996970 -0.000000 23.205261
LeftHand -12.717460 -0.000000 -8.721343
LeftHandThumb1 -26.253704 0.000000 33.147579
Head 3.359494 -15.858224 -2.662235
1259
root 2.487827 37.085697 2.416822 0.832736 9.014824 2.646934
RightUpLeg 9.564612 -13.597382 -4.570251
RightLeg -5.572527 -0.000000 0.000000
RightFoot -14.153799 -18.169544 18.089358
RightToeBase 15.537204 -0.000000 -0.000000
LeftUpLeg 4.477538 -6.651940 0.769717
LeftLeg -3.271627 -0.000000 0.000000
LeftFoot -7.031234 10.421552 -16.874640
LeftToeBase 9.664997 -0.000000 -0.000000
Spine -4.024231 7.713108 -2.211253
RightShoulder -0.067874 6.407680 -26.866584
RightArm 82.676909 43.255925 128.385667
RightForeArm 86.544012 -0.000000 115.722144
RightHand 27.771872 -0.000000 -34.989068
RightHandThumb1 -24.326973 -0.000000 -32.862282
LeftShoulder -4.995841 34.836647 2.652960
LeftArm 44.138287 19.720770 -58.232238
LeftForeArm 22.279929 -0.000000 22.567787
LeftHand -12.719073 -0.000000 -9.110630
LeftHandThumb1 -26.253704 0.000000 33.147579
Head 3.641523 -15.755979 -2.836215
1260
root 2.494568 37.085096 2.422415 0.777891 8.636388 2.596653
RightUpLeg 9.550029 -13.571303 -4.571498
RightLeg -5.565662 -0.000000 0.000000
RightFoot -14.023178 -17.902978 17.965031
RightToeBase 15.583180 -0.000000 -0.000000
LeftUpLeg 4.545226 -6.525476 0.774068
LeftLeg -3.185807 -0.000000 0.000000
LeftFoot -7.216373 10.644419 -16.856806
LeftToeBase 9.672072 -0.000000 -0.000000
Spine -4.035251 8.012451 -2.053435
RightShoulder 0.022579 6.497937 -26.815805
RightArm 82.563044 43.225164 128.289611
RightForeArm 86.474158 -0.000000 115.609384
RightHand 27.598329 -0.000000 -35.003228
RightHandThumb1 -24.326973 -0.000000 -32.862282
LeftShoulder -4.960150 34.604733 2.636919
LeftArm 43.950192 19.525960 -58.532914
LeftForeArm 22.801837 -0.000000 22.003588
LeftHand -12.727005 -0.000000 -9.208749
LeftHandThumb1 -26.253704 0.000000 33.147579
Head 3.863133 -15.703567 -2.913969
1261
root 2.502639 37.084489 2.426488 0.727824 8.260375 2.555604
RightUpLeg 9.534184 -13.532755 -4.583951
RightLeg -5.553825 -0.000000 0.000000
RightFoot -13.902501 -17.612389 17.882578
RightToeBase 15.603493 -0.000000 -0.000000
LeftUpLeg 4.615405 -6.493719 0.768754
LeftLeg -3.120679 -0.000000 0.000000
LeftFoot -7.390760 10.928791 -16.890959
LeftToeBase 9.637675 -0.000000 -0.000000
Spine -4.035172 8.281289 -1.909305
RightShoulder 0.145898 6.528901 -26.813044
RightArm 82.471335 43.145101 128.201137
RightForeArm 86.323108 -0.000000 115.507621
RightHand 27.469922 -0.000000 -34.999797
RightHandThumb1 -24.326973 -0.000000 -32.862282
LeftShoulder -5.015558 34.495537 2.552033
LeftArm 43.939690 19.295850 -58.743930
LeftForeArm 23.178818 -0.000000 21.413012
LeftHand -12.902587 0.000000 -9.270456
LeftHandThumb1 -26.253704 0.000000 33.147579
Head 4.008479 -15.612988 -2.930864
1262
root 2.510818 37.083344 2.434709 0.642144 7.875720 2.524899
RightUpLeg 9.571361 -13.408840 -4.607377
RightLeg -5.569910 -0.000000 0.000000
RightFoot -13.806104 -17.394763 17.816759
RightToeBase 15.650838 -0.000000 -0.000000
LeftUpLeg 4.747790 -6.422471 0.745639
LeftLeg -3.084865 -0.000000 0.000000
LeftFoot -7.546906 11.209137 -16.879076
LeftToeBase 9.589352 -0.000000 -0.000000
Spine -3.987449 8.563813 -1.771630
RightShoulder 0.273218 6.467005 -26.860445
RightArm 82.409392 42.975606 128.133890
RightForeArm 86.122186 -0.000000 115.405237
RightHand 27.453611 -0.000000 -34.607095
RightHandThumb1 -24.326973 -0.000000 -32.862282
LeftShoulder -5.065059 34.375964 2.481885
LeftArm 43.913718 19.055362 -58.988548
LeftForeArm 23.408667 0.000000 20.826723
LeftHand -12.977348 0.000000 -9.422689
LeftHandThumb1 -26.253704 0.000000 33.147579
Head 4.118648 -15.512502 -2.933367
1263
root 2.516193 37.081750 2.441803 0.559011 7.501598 2.491527
RightUpLeg 9.601834 -13.258374 -4.617330
RightLeg -5.584800 -0.000000 0.000000
RightFoot -13.707508 -17.213520 17.750756
RightToeBase 15.641577 -0.000000 -0.000000
LeftUpLeg 4.865316 -6.358876 0.737420
LeftLeg -3.041213 -0.000000 0.000000
LeftFoot -7.690209 11.442678 -16.928074
LeftToeBase 9.492616 -0.000000 -0.000000
Spine -3.926886 8.805757 -1.651010
RightShoulder 0.419667 6.397044 -26.913488
RightArm 82.331409 42.766110 128.024062
RightForeArm 85.839505 -0.000000 115.303546
RightHand 27.317201 0.000000 -34.053544
RightHandThumb1 -24.326973 -0.000000 -32.862282
LeftShoulder -5.153591 34.302515 2.404003
LeftArm 43.910252 18.785968 -59.236371
LeftForeArm 23.697526 -0.000000 20.313292
LeftHand -13.016499 -0.000000 -9.448882
LeftHandThumb1 -26.253704 0.000000 33.147579
Head 4.163362 -15.444179 -2.873905
